HIERARCHY
ROOT Hips
{
  OFFSET 5.84602e-005 68.8428 3.50346
  CHANNELS 6 Xposition Yposition Zposition Zrotation Xrotation Yrotation
  JOINT Spine
  {
    OFFSET 0 8.597 -4.6522
    CHANNELS 3 Zrotation Xrotation Yrotation
    JOINT Spine1
    {
      OFFSET 0 7.8454 0.4098
      CHANNELS 3 Zrotation Xrotation Yrotation
      JOINT Spine2
      {
        OFFSET 0 9.7078 -2.1609
        CHANNELS 3 Zrotation Xrotation Yrotation
        JOINT Neck
        {
          OFFSET 0 21.8761 -0.4549
          CHANNELS 3 Zrotation Xrotation Yrotation
          JOINT Head
          {
            OFFSET 0 12.3537 3.3602
            CHANNELS 3 Zrotation Xrotation Yrotation
            End Site
            {
              OFFSET 0.0001 18.9506 0.5657
            }
          }
        }
        JOINT LeftShoulder
        {
          OFFSET 2.2086 21.1115 7.2329
          CHANNELS 3 Zrotation Xrotation Yrotation
          JOINT LeftArm
          {
            OFFSET 13.1193 3.0282 -4.8998
            CHANNELS 3 Zrotation Xrotation Yrotation
            JOINT LeftForeArm
            {
              OFFSET 27.4081 -0.0973053 -0.2375
              CHANNELS 3 Zrotation Xrotation Yrotation
              JOINT LeftHand
              {
                OFFSET 22.8641 0.0662994 -0.1369
                CHANNELS 3 Zrotation Xrotation Yrotation
                JOINT LeftHandIndex1
                {
                  OFFSET 8.8614 0.775009 2.4612
                  CHANNELS 3 Zrotation Xrotation Yrotation
                  JOINT LeftHandIndex2
                  {
                    OFFSET 3.3146 -0.808304 0.5841
                    CHANNELS 3 Zrotation Xrotation Yrotation
                    JOINT LeftHandIndex3
                    {
                      OFFSET 2.2628 -0.552002 0.3989
                      CHANNELS 3 Zrotation Xrotation Yrotation
                      End Site
                      {
                        OFFSET 1.6102 -0.4807 0.2612
                      }
                    }
                  }
                }
                JOINT LeftHandMiddle1
                {
                  OFFSET 8.9937 0.895004 0.2143
                  CHANNELS 3 Zrotation Xrotation Yrotation
                  JOINT LeftHandMiddle2
                  {
                    OFFSET 4.0984 0.0113983 -0.0242
                    CHANNELS 3 Zrotation Xrotation Yrotation
                    JOINT LeftHandMiddle3
                    {
                      OFFSET 2.2716 0.00689697 -0.0138001
                      CHANNELS 3 Zrotation Xrotation Yrotation
                      End Site
                      {
                        OFFSET 2.0404 -0.1441 0.0027
                      }
                    }
                  }
                }
                JOINT LeftHandRing1
                {
                  OFFSET 8.5234 0.597198 -2.0164
                  CHANNELS 3 Zrotation Xrotation Yrotation
                  JOINT LeftHandRing2
                  {
                    OFFSET 3.7188 -0.188293 -0.2328
                    CHANNELS 3 Zrotation Xrotation Yrotation
                    JOINT LeftHandRing3
                    {
                      OFFSET 2.1191 -0.106598 -0.1332
                      CHANNELS 3 Zrotation Xrotation Yrotation
                      End Site
                      {
                        OFFSET 1.8737 -0.2304 -0.0886
                      }
                    }
                  }
                }
                JOINT LeftHandPinky1
                {
                  OFFSET 7.9094 -0.601089 -3.4825
                  CHANNELS 3 Zrotation Xrotation Yrotation
                  JOINT LeftHandPinky2
                  {
                    OFFSET 2.2874 -0.477005 -0.6314
                    CHANNELS 3 Zrotation Xrotation Yrotation
                    JOINT LeftHandPinky3
                    {
                      OFFSET 1.6774 -0.349396 -0.4633
                      CHANNELS 3 Zrotation Xrotation Yrotation
                      End Site
                      {
                        OFFSET 1.4888 -0.4091 -0.3416
                      }
                    }
                  }
                }
                JOINT LeftHandThumb1
                {
                  OFFSET 1.833 -1.3875 1.3896
                  CHANNELS 3 Zrotation Xrotation Yrotation
                  JOINT LeftHandThumb2
                  {
                    OFFSET 3.4129 -1.121 2.5732
                    CHANNELS 3 Zrotation Xrotation Yrotation
                    JOINT LeftHandThumb3
                    {
                      OFFSET 2.2474 -0.804199 1.6192
                      CHANNELS 3 Zrotation Xrotation Yrotation
                      End Site
                      {
                        OFFSET 1.6527 -0.5689 1.1317
                      }
                    }
                  }
                }
              }
            }
          }
        }
        JOINT RightShoulder
        {
          OFFSET -2.2086 21.1115 7.2329
          CHANNELS 3 Zrotation Xrotation Yrotation
          JOINT RightArm
          {
            OFFSET -13.1216 3.0287 -4.9007
            CHANNELS 3 Zrotation Xrotation Yrotation
            JOINT RightForeArm
            {
              OFFSET -27.4081 -0.0973053 -0.2375
              CHANNELS 3 Zrotation Xrotation Yrotation
              JOINT RightHand
              {
                OFFSET -22.8641 0.0664063 -0.1369
                CHANNELS 3 Zrotation Xrotation Yrotation
                JOINT RightHandIndex1
                {
                  OFFSET -8.8614 0.774994 2.4612
                  CHANNELS 3 Zrotation Xrotation Yrotation
                  JOINT RightHandIndex2
                  {
                    OFFSET -3.3146 -0.808304 0.5841
                    CHANNELS 3 Zrotation Xrotation Yrotation
                    JOINT RightHandIndex3
                    {
                      OFFSET -2.2628 -0.552002 0.3989
                      CHANNELS 3 Zrotation Xrotation Yrotation
                      End Site
                      {
                        OFFSET -1.6102 -0.4807 0.2612
                      }
                    }
                  }
                }
                JOINT RightHandMiddle1
                {
                  OFFSET -8.9937 0.894989 0.2143
                  CHANNELS 3 Zrotation Xrotation Yrotation
                  JOINT RightHandMiddle2
                  {
                    OFFSET -4.0984 0.0113983 -0.0242
                    CHANNELS 3 Zrotation Xrotation Yrotation
                    JOINT RightHandMiddle3
                    {
                      OFFSET -2.2716 0.00691223 -0.0138001
                      CHANNELS 3 Zrotation Xrotation Yrotation
                      End Site
                      {
                        OFFSET -2.0404 -0.1441 0.0027
                      }
                    }
                  }
                }
                JOINT RightHandRing1
                {
                  OFFSET -8.5234 0.597198 -2.0164
                  CHANNELS 3 Zrotation Xrotation Yrotation
                  JOINT RightHandRing2
                  {
                    OFFSET -3.7188 -0.188309 -0.2328
                    CHANNELS 3 Zrotation Xrotation Yrotation
                    JOINT RightHandRing3
                    {
                      OFFSET -2.1191 -0.106598 -0.1332
                      CHANNELS 3 Zrotation Xrotation Yrotation
                      End Site
                      {
                        OFFSET -1.8737 -0.2304 -0.0886
                      }
                    }
                  }
                }
                JOINT RightHandPinky1
                {
                  OFFSET -7.9094 -0.601105 -3.4825
                  CHANNELS 3 Zrotation Xrotation Yrotation
                  JOINT RightHandPinky2
                  {
                    OFFSET -2.2874 -0.477005 -0.6314
                    CHANNELS 3 Zrotation Xrotation Yrotation
                    JOINT RightHandPinky3
                    {
                      OFFSET -1.6774 -0.349396 -0.4633
                      CHANNELS 3 Zrotation Xrotation Yrotation
                      End Site
                      {
                        OFFSET -1.4888 -0.4091 -0.3416
                      }
                    }
                  }
                }
                JOINT RightHandThumb1
                {
                  OFFSET -1.833 -1.38751 1.3896
                  CHANNELS 3 Zrotation Xrotation Yrotation
                  JOINT RightHandThumb2
                  {
                    OFFSET -3.41299 -1.12099 2.5732
                    CHANNELS 3 Zrotation Xrotation Yrotation
                    JOINT RightHandThumb3
                    {
                      OFFSET -2.24741 -0.804108 1.6192
                      CHANNELS 3 Zrotation Xrotation Yrotation
                      End Site
                      {
                        OFFSET -1.6527 -0.5689 1.1317
                      }
                    }
                  }
                }
              }
            }
          }
        }
      }
    }
  }
  JOINT RightUpLeg
  {
    OFFSET -9.1966 3.8861 -0.7581
    CHANNELS 3 Zrotation Xrotation Yrotation
    JOINT RightLeg
    {
      OFFSET -0.7359 -41.0265 0
      CHANNELS 3 Zrotation Xrotation Yrotation
      JOINT RightFoot
      {
        OFFSET 0 -40.2855 0
        CHANNELS 3 Zrotation Xrotation Yrotation
        JOINT RightToeBase
        {
          OFFSET 0 -5.6122 11.7359
          CHANNELS 3 Zrotation Xrotation Yrotation
          End Site
          {
            OFFSET 0 0 7.8731
          }
        }
      }
    }
  }
  JOINT LeftUpLeg
  {
    OFFSET 9.1965 3.8864 -0.7581
    CHANNELS 3 Zrotation Xrotation Yrotation
    JOINT LeftLeg
    {
      OFFSET 0.7359 -41.0268 0
      CHANNELS 3 Zrotation Xrotation Yrotation
      JOINT LeftFoot
      {
        OFFSET 0 -40.2855 0
        CHANNELS 3 Zrotation Xrotation Yrotation
        JOINT LeftToeBase
        {
          OFFSET 0 -5.6122 11.7359
          CHANNELS 3 Zrotation Xrotation Yrotation
          End Site
          {
            OFFSET 0 0 7.8731
          }
        }
      }
    }
  }
}
MOTION
Frames:	4
Frame Time:	0.0333333
5.84602e-005 68.8428 3.50346 0 0 -0 0 0 -0 0 0 -0 0 0 -0 0 0 -0 0 0 -0 0 0 -0 0 0 -0 0 0 -0 0 0 -0 0 0 -0 0 0 -0 0 0 -0 0 0 -0 -0.0146107 -8.87603e-005 -2.63497e-007 2.99804e-018 -2.42657e-020 -1.42182e-022 0 0 -0 -0.0187562 -0.001176 5.858e-005 5.06224e-018 3.88251e-019 1.21329e-020 0 0 -0 -0.012269 -0.00324817 0.000675346 -1.74678e-018 3.88251e-019 -0 0 0 -0 0 0 -0 0 0 -0 0 0 -0 0 0 -0 0 0 -0 0 0 -0 0 0 -0 0 0 -0 0 0 -0 0 0 -0 0.0149955 -9.10982e-005 2.64101e-007 -9.69331e-018 1.21329e-020 -4.7394e-023 0 0 -0 0.0189956 -0.00119102 -5.96516e-005 -5.41541e-019 0 2.42657e-020 0 0 -0 0.0122698 -0.00324857 -0.000673756 -2.00796e-019 0 -1.94126e-019 0 0 -0 0 0 -0 0 0 -0 3.39842 1.33031 -0.0637918 -5.65207e-008 0.834868 -0.000436188 -3.39935 -2.16518 -0.0642563 -8.89002e-024 -1.18485e-023 -1.48106e-024 -3.39844 1.35642 0.0640283 -3.18788e-007 0.782166 -0.000588827 3.39931 -2.13858 0.0634662 1.1399e-023 0 -0 
0.530912 9.96493 6.21169 -0 -81.9931 -0 0.818274 0.818767 -0.167581 1.63919 1.63502 -0.346893 1.63919 1.63504 -0.346893 1.87688e-005 -3.241e-008 -3.92465e-006 3.6451 4.65431 -0.314468 -9.70325 5.12884 -17.6677 79.2629 -46.2825 1.66443 -5.71761 -6.43687 -95.6354 -2.46509 -34.4169 12.9665 1.59028e-015 -3.18055e-015 1.98785e-015 2.48296e-006 6.02334e-007 5.42335e-007 1.07512e-007 2.12773e-006 2.94081e-006 1.59028e-015 -3.18055e-015 1.98785e-015 -0.0145676 -9.26704e-005 3.43397e-006 3.2109e-007 -3.27744e-007 3.62245e-006 1.59028e-015 -3.18055e-015 1.98785e-015 -0.0187273 -0.00117567 5.97237e-005 3.21164e-007 -3.27865e-007 3.62244e-006 1.59028e-015 -3.18055e-015 1.98785e-015 -0.0122605 -0.00324351 0.000676957 3.21165e-007 -3.27642e-007 3.62244e-006 1.59028e-015 -3.18055e-015 1.98785e-015 2.48296e-006 6.02334e-007 5.42335e-007 1.07512e-007 2.12773e-006 2.94081e-006 4.87156 -0.0632376 -1.94566 51.7674 -24.3816 -0.873519 26.0329 43.6508 -0.435409 -8.8796 -3.03343 3.49004 -1.59028e-015 -8.44835e-016 1.98785e-016 5.97406e-006 -1.39894e-006 -4.47805e-006 -1.59028e-015 8.69683e-016 5.96354e-016 -1.59028e-015 -8.44835e-016 1.98785e-016 0.0149884 -0.000101879 -4.91548e-007 5.50394e-007 2.86497e-007 -1.49517e-006 -1.59028e-015 -8.44835e-016 1.98785e-016 0.0190149 -0.00119526 -6.07309e-005 1.59028e-015 -1.49089e-015 1.78906e-015 -1.59028e-015 -8.44835e-016 1.98785e-016 0.0122988 -0.00325363 -0.000680345 -1.59028e-015 -3.72721e-016 -0 -1.59028e-015 -8.44835e-016 1.98785e-016 5.97406e-006 -1.39894e-006 -4.47805e-006 -1.59028e-015 8.69683e-016 5.96354e-016 7.09952 -32.3259 -7.10764 -91.0769 78.7216 73.2886 -4.82347 7.40549 13.8925 8.94531e-016 9.54166e-015 4.96962e-016 3.92997 7.86422 20.6468 -2.36011 8.19123 1.71509 12.8313 28.5245 -30.5771 -2.08896e-007 -4.67079e-009 -3.80249e-007 
0.606036 0.354816 5.31038 -180 -84.5898 -180 0.95436 0.952978 -0.172538 1.91198 1.90295 -0.361002 1.91198 1.90294 -0.361001 -4.56484e-005 -0.000280263 9.67312e-006 4.24646 5.41591 -0.366356 -10.9911 5.8648 -20.5863 92.6658 -53.8487 2.26918 -8.83668 -20.4874 -104.056 -0.965402 -39.7069 16.2246 -1.92327e-007 1.36459e-008 9.14308e-008 -1.92327e-007 1.36459e-008 9.14308e-008 -3.84653e-007 2.72917e-008 1.82862e-007 -1.92327e-007 1.36459e-008 9.14308e-008 -0.0145541 -8.86453e-005 1.64715e-007 -4.54626e-007 -2.75529e-006 1.8005e-007 -1.92327e-007 1.36459e-008 9.14308e-008 -0.0187415 -0.00117775 6.08084e-005 -3.8465e-007 2.72621e-008 1.8287e-007 -1.92327e-007 1.36459e-008 9.14308e-008 -0.012363 -0.00327115 0.000680559 -4.54373e-007 -2.75567e-006 1.80198e-007 -1.92327e-007 1.36459e-008 9.14308e-008 -1.92327e-007 1.36459e-008 9.14308e-008 -3.84653e-007 2.72917e-008 1.82862e-007 5.66824 -0.0736422 -2.26402 60.1581 -28.3702 -1.05221 30.1538 51.9782 -0.572142 -10.2974 -3.52749 4.06315 -2.71033e-006 3.92198e-006 -3.94346e-007 2.71033e-006 -3.92198e-006 3.94346e-007 -2.71033e-006 3.92198e-006 -3.94346e-007 -2.71033e-006 3.92198e-006 -3.94346e-007 0.0150161 -9.36014e-005 8.97391e-006 -2.71042e-006 3.92193e-006 -3.94858e-007 -2.71033e-006 3.92198e-006 -3.94346e-007 0.0190201 -0.00118992 -5.53202e-005 -2.71045e-006 3.92192e-006 -3.94968e-007 -2.71033e-006 3.92198e-006 -3.94346e-007 0.01227 -0.00325089 -0.000675576 -2.71043e-006 3.92194e-006 -3.94685e-007 -2.71033e-006 3.92198e-006 -3.94346e-007 2.71033e-006 -3.92198e-006 3.94346e-007 -2.71033e-006 3.92198e-006 -3.94346e-007 7.15717 -37.324 -9.06344 -148.15 73.7636 125.81 -5.53384 8.97972 16.2008 -1.31618e-008 1.6432e-010 2.1685e-009 4.82537 8.52366 24.0431 -2.75883 9.7468 2.10794 17.6896 31.0935 -37.1083 -5.92038e-007 5.91634e-007 -6.91423e-007 
0.587553 2.81444 5.57279 -180 -87.9973 -180 0.919798 0.918883 -0.171881 1.8427 1.83488 -0.358563 1.84271 1.83489 -0.358564 -5.3823e-005 9.99419e-006 1.55874e-005 4.09361 5.22249 -0.35316 -10.6716 5.68203 -19.8441 89.2373 -51.9276 2.09321 -7.85485 -16.7208 -102.17 -1.41977 -38.3805 15.3407 1.13804e-006 -1.49817e-007 3.72784e-007 -3.82628e-007 5.68066e-008 -7.55412e-007 9.30078e-007 -3.48633e-008 -4.31795e-007 1.13804e-006 -1.49817e-007 3.72784e-007 -0.0145433 -8.74949e-005 -2.25862e-007 9.32024e-007 -3.47968e-008 -4.318e-007 1.13804e-006 -1.49817e-007 3.72784e-007 -0.018778 -0.0011773 5.68214e-005 7.55399e-007 -9.29487e-008 -3.82651e-007 1.13804e-006 -1.49817e-007 3.72784e-007 -0.0123683 -0.00327507 0.000683642 7.55394e-007 -9.29752e-008 -3.82659e-007 1.13804e-006 -1.49817e-007 3.72784e-007 -3.82628e-007 5.68066e-008 -7.55412e-007 9.30078e-007 -3.48633e-008 -4.31795e-007 5.46592 -0.0709991 -2.18317 58.0298 -27.3573 -1.00519 29.1113 49.8249 -0.531107 -9.93824 -3.40211 3.91751 -4.12017e-006 -3.59749e-006 2.16248e-006 1.79875e-006 -2.06009e-006 -1.73619e-006 -4.90739e-006 -1.51468e-006 3.99505e-006 -4.12017e-006 -3.59749e-006 2.16248e-006 0.0149914 -9.5135e-005 -2.37449e-006 -4.12062e-006 -3.59721e-006 2.16295e-006 -4.12017e-006 -3.59749e-006 2.16248e-006 0.0190085 -0.00119767 -5.78708e-005 -4.12072e-006 -3.5971e-006 2.16312e-006 -4.12017e-006 -3.59749e-006 2.16248e-006 0.0122363 -0.00324469 -0.000677051 -4.12046e-006 -3.59719e-006 2.163e-006 -4.12017e-006 -3.59749e-006 2.16248e-006 1.79875e-006 -2.06009e-006 -1.73619e-006 -4.90739e-006 -1.51468e-006 3.99505e-006 7.15294 -36.0603 -8.52634 -137.841 75.991 116.713 -5.35231 8.59313 15.6213 1.05395e-007 -1.07842e-009 -1.67074e-008 4.57559 8.41421 23.1834 -2.65596 9.2069 1.95446 15.9072 29.8984 -35.1726 -3.83214e-007 3.16375e-006 5.40657e-008 
